<mxfile host="Electron" modified="2024-02-22T09:16:26.723Z" agent="Mozilla/5.0 (Windows NT 10.0; Win64; x64) AppleWebKit/537.36 (KHTML, like Gecko) draw.io/22.1.18 Chrome/120.0.6099.199 Electron/28.1.2 Safari/537.36" etag="w-ASo7Xsb8EFioHEz8ic" version="22.1.18" type="device">
  <diagram name="Страница — 1" id="QpYDMI65Mmt2rqajtGfP">
    <mxGraphModel dx="2084" dy="1242" grid="1" gridSize="10" guides="1" tooltips="1" connect="1" arrows="1" fold="1" page="1" pageScale="1" pageWidth="1169" pageHeight="827" math="0" shadow="0">
      <root>
        <mxCell id="0" />
        <mxCell id="1" parent="0" />
        <mxCell id="di6f2RVzCRFzlBpOF8W5-11" value="" style="rounded=0;whiteSpace=wrap;html=1;fillColor=none;movable=0;resizable=0;rotatable=0;deletable=0;editable=0;locked=1;connectable=0;" vertex="1" parent="1">
          <mxGeometry x="207" y="60" width="870" height="1410" as="geometry" />
        </mxCell>
        <mxCell id="di6f2RVzCRFzlBpOF8W5-2" value="пользователь" style="shape=umlActor;verticalLabelPosition=bottom;verticalAlign=top;html=1;outlineConnect=0;" vertex="1" parent="1">
          <mxGeometry x="87" y="800" width="30" height="60" as="geometry" />
        </mxCell>
        <mxCell id="di6f2RVzCRFzlBpOF8W5-74" value="" style="rounded=0;orthogonalLoop=1;jettySize=auto;html=1;dashed=1;" edge="1" parent="1" source="di6f2RVzCRFzlBpOF8W5-4" target="di6f2RVzCRFzlBpOF8W5-35">
          <mxGeometry relative="1" as="geometry" />
        </mxCell>
        <mxCell id="di6f2RVzCRFzlBpOF8W5-130" value="include" style="edgeLabel;html=1;align=center;verticalAlign=middle;resizable=0;points=[];" vertex="1" connectable="0" parent="di6f2RVzCRFzlBpOF8W5-74">
          <mxGeometry x="-0.0697" y="2" relative="1" as="geometry">
            <mxPoint as="offset" />
          </mxGeometry>
        </mxCell>
        <mxCell id="di6f2RVzCRFzlBpOF8W5-75" style="rounded=0;orthogonalLoop=1;jettySize=auto;html=1;dashed=1;" edge="1" parent="1" source="di6f2RVzCRFzlBpOF8W5-4" target="di6f2RVzCRFzlBpOF8W5-36">
          <mxGeometry relative="1" as="geometry" />
        </mxCell>
        <mxCell id="di6f2RVzCRFzlBpOF8W5-131" value="include" style="edgeLabel;html=1;align=center;verticalAlign=middle;resizable=0;points=[];" vertex="1" connectable="0" parent="di6f2RVzCRFzlBpOF8W5-75">
          <mxGeometry x="-0.0226" y="1" relative="1" as="geometry">
            <mxPoint as="offset" />
          </mxGeometry>
        </mxCell>
        <mxCell id="di6f2RVzCRFzlBpOF8W5-76" style="rounded=0;orthogonalLoop=1;jettySize=auto;html=1;entryX=0;entryY=0.5;entryDx=0;entryDy=0;dashed=1;" edge="1" parent="1" source="di6f2RVzCRFzlBpOF8W5-4" target="di6f2RVzCRFzlBpOF8W5-37">
          <mxGeometry relative="1" as="geometry" />
        </mxCell>
        <mxCell id="di6f2RVzCRFzlBpOF8W5-132" value="include" style="edgeLabel;html=1;align=center;verticalAlign=middle;resizable=0;points=[];" vertex="1" connectable="0" parent="di6f2RVzCRFzlBpOF8W5-76">
          <mxGeometry x="-0.1799" y="1" relative="1" as="geometry">
            <mxPoint as="offset" />
          </mxGeometry>
        </mxCell>
        <mxCell id="di6f2RVzCRFzlBpOF8W5-4" value="регистрация нового пользователя" style="ellipse;whiteSpace=wrap;html=1;" vertex="1" parent="1">
          <mxGeometry x="287" y="80" width="120" height="80" as="geometry" />
        </mxCell>
        <mxCell id="di6f2RVzCRFzlBpOF8W5-77" style="rounded=0;orthogonalLoop=1;jettySize=auto;html=1;dashed=1;" edge="1" parent="1" source="di6f2RVzCRFzlBpOF8W5-5">
          <mxGeometry relative="1" as="geometry">
            <mxPoint x="470" y="230" as="targetPoint" />
          </mxGeometry>
        </mxCell>
        <mxCell id="di6f2RVzCRFzlBpOF8W5-133" value="include" style="edgeLabel;html=1;align=center;verticalAlign=middle;resizable=0;points=[];" vertex="1" connectable="0" parent="di6f2RVzCRFzlBpOF8W5-77">
          <mxGeometry x="-0.2145" y="2" relative="1" as="geometry">
            <mxPoint as="offset" />
          </mxGeometry>
        </mxCell>
        <mxCell id="di6f2RVzCRFzlBpOF8W5-5" value="авторизация пользователя" style="ellipse;whiteSpace=wrap;html=1;" vertex="1" parent="1">
          <mxGeometry x="287" y="190" width="120" height="80" as="geometry" />
        </mxCell>
        <mxCell id="di6f2RVzCRFzlBpOF8W5-6" value="&lt;br&gt;просмотр движения денежных средств за выбранный период" style="ellipse;whiteSpace=wrap;html=1;" vertex="1" parent="1">
          <mxGeometry x="287" y="300" width="120" height="86" as="geometry" />
        </mxCell>
        <mxCell id="di6f2RVzCRFzlBpOF8W5-163" style="rounded=0;orthogonalLoop=1;jettySize=auto;html=1;dashed=1;" edge="1" parent="1" source="di6f2RVzCRFzlBpOF8W5-8" target="di6f2RVzCRFzlBpOF8W5-160">
          <mxGeometry relative="1" as="geometry" />
        </mxCell>
        <mxCell id="di6f2RVzCRFzlBpOF8W5-168" value="include" style="edgeLabel;html=1;align=center;verticalAlign=middle;resizable=0;points=[];" vertex="1" connectable="0" parent="di6f2RVzCRFzlBpOF8W5-163">
          <mxGeometry x="0.0268" y="-2" relative="1" as="geometry">
            <mxPoint as="offset" />
          </mxGeometry>
        </mxCell>
        <mxCell id="di6f2RVzCRFzlBpOF8W5-8" value="осуществление анализа данных с предоставлением визуализации" style="ellipse;whiteSpace=wrap;html=1;" vertex="1" parent="1">
          <mxGeometry x="287" y="414" width="120" height="86" as="geometry" />
        </mxCell>
        <mxCell id="di6f2RVzCRFzlBpOF8W5-81" style="rounded=0;orthogonalLoop=1;jettySize=auto;html=1;entryX=0;entryY=0.5;entryDx=0;entryDy=0;dashed=1;" edge="1" parent="1" source="di6f2RVzCRFzlBpOF8W5-9" target="di6f2RVzCRFzlBpOF8W5-54">
          <mxGeometry relative="1" as="geometry" />
        </mxCell>
        <mxCell id="di6f2RVzCRFzlBpOF8W5-135" value="include" style="edgeLabel;html=1;align=center;verticalAlign=middle;resizable=0;points=[];" vertex="1" connectable="0" parent="di6f2RVzCRFzlBpOF8W5-81">
          <mxGeometry x="-0.1467" y="-1" relative="1" as="geometry">
            <mxPoint as="offset" />
          </mxGeometry>
        </mxCell>
        <mxCell id="di6f2RVzCRFzlBpOF8W5-82" style="rounded=0;orthogonalLoop=1;jettySize=auto;html=1;entryX=0;entryY=0.5;entryDx=0;entryDy=0;dashed=1;" edge="1" parent="1" source="di6f2RVzCRFzlBpOF8W5-9" target="di6f2RVzCRFzlBpOF8W5-55">
          <mxGeometry relative="1" as="geometry" />
        </mxCell>
        <mxCell id="di6f2RVzCRFzlBpOF8W5-136" value="include" style="edgeLabel;html=1;align=center;verticalAlign=middle;resizable=0;points=[];" vertex="1" connectable="0" parent="di6f2RVzCRFzlBpOF8W5-82">
          <mxGeometry x="0.1037" y="1" relative="1" as="geometry">
            <mxPoint as="offset" />
          </mxGeometry>
        </mxCell>
        <mxCell id="di6f2RVzCRFzlBpOF8W5-83" style="rounded=0;orthogonalLoop=1;jettySize=auto;html=1;entryX=0;entryY=0.5;entryDx=0;entryDy=0;dashed=1;exitX=1;exitY=0.5;exitDx=0;exitDy=0;" edge="1" parent="1" source="di6f2RVzCRFzlBpOF8W5-9" target="di6f2RVzCRFzlBpOF8W5-56">
          <mxGeometry relative="1" as="geometry" />
        </mxCell>
        <mxCell id="di6f2RVzCRFzlBpOF8W5-137" value="include" style="edgeLabel;html=1;align=center;verticalAlign=middle;resizable=0;points=[];" vertex="1" connectable="0" parent="di6f2RVzCRFzlBpOF8W5-83">
          <mxGeometry x="0.1273" y="2" relative="1" as="geometry">
            <mxPoint as="offset" />
          </mxGeometry>
        </mxCell>
        <mxCell id="di6f2RVzCRFzlBpOF8W5-9" value="добавление новой записи о финансовой операции&amp;nbsp;" style="ellipse;whiteSpace=wrap;html=1;" vertex="1" parent="1">
          <mxGeometry x="287" y="530" width="120" height="86" as="geometry" />
        </mxCell>
        <mxCell id="di6f2RVzCRFzlBpOF8W5-87" style="rounded=0;orthogonalLoop=1;jettySize=auto;html=1;entryX=0;entryY=0.5;entryDx=0;entryDy=0;dashed=1;" edge="1" parent="1" source="di6f2RVzCRFzlBpOF8W5-10" target="di6f2RVzCRFzlBpOF8W5-66">
          <mxGeometry relative="1" as="geometry" />
        </mxCell>
        <mxCell id="di6f2RVzCRFzlBpOF8W5-138" value="include" style="edgeLabel;html=1;align=center;verticalAlign=middle;resizable=0;points=[];" vertex="1" connectable="0" parent="di6f2RVzCRFzlBpOF8W5-87">
          <mxGeometry x="-0.0676" y="2" relative="1" as="geometry">
            <mxPoint as="offset" />
          </mxGeometry>
        </mxCell>
        <mxCell id="di6f2RVzCRFzlBpOF8W5-88" style="rounded=0;orthogonalLoop=1;jettySize=auto;html=1;entryX=0;entryY=0.5;entryDx=0;entryDy=0;dashed=1;" edge="1" parent="1" source="di6f2RVzCRFzlBpOF8W5-10" target="di6f2RVzCRFzlBpOF8W5-67">
          <mxGeometry relative="1" as="geometry" />
        </mxCell>
        <mxCell id="di6f2RVzCRFzlBpOF8W5-139" value="include" style="edgeLabel;html=1;align=center;verticalAlign=middle;resizable=0;points=[];" vertex="1" connectable="0" parent="di6f2RVzCRFzlBpOF8W5-88">
          <mxGeometry x="-0.1354" relative="1" as="geometry">
            <mxPoint as="offset" />
          </mxGeometry>
        </mxCell>
        <mxCell id="di6f2RVzCRFzlBpOF8W5-93" style="rounded=0;orthogonalLoop=1;jettySize=auto;html=1;exitX=1;exitY=0.5;exitDx=0;exitDy=0;entryX=0;entryY=1;entryDx=0;entryDy=0;dashed=1;" edge="1" parent="1" source="di6f2RVzCRFzlBpOF8W5-10" target="di6f2RVzCRFzlBpOF8W5-70">
          <mxGeometry relative="1" as="geometry" />
        </mxCell>
        <mxCell id="di6f2RVzCRFzlBpOF8W5-140" value="include" style="edgeLabel;html=1;align=center;verticalAlign=middle;resizable=0;points=[];" vertex="1" connectable="0" parent="di6f2RVzCRFzlBpOF8W5-93">
          <mxGeometry x="0.002" y="-1" relative="1" as="geometry">
            <mxPoint as="offset" />
          </mxGeometry>
        </mxCell>
        <mxCell id="di6f2RVzCRFzlBpOF8W5-10" value="добавление нового счета" style="ellipse;whiteSpace=wrap;html=1;" vertex="1" parent="1">
          <mxGeometry x="287" y="650" width="120" height="86" as="geometry" />
        </mxCell>
        <mxCell id="di6f2RVzCRFzlBpOF8W5-14" value="использование калькулятора" style="ellipse;whiteSpace=wrap;html=1;" vertex="1" parent="1">
          <mxGeometry x="287" y="764" width="120" height="86" as="geometry" />
        </mxCell>
        <mxCell id="di6f2RVzCRFzlBpOF8W5-100" style="rounded=0;orthogonalLoop=1;jettySize=auto;html=1;entryX=0;entryY=0.5;entryDx=0;entryDy=0;dashed=1;" edge="1" parent="1" source="di6f2RVzCRFzlBpOF8W5-15" target="di6f2RVzCRFzlBpOF8W5-98">
          <mxGeometry relative="1" as="geometry" />
        </mxCell>
        <mxCell id="di6f2RVzCRFzlBpOF8W5-141" value="include" style="edgeLabel;html=1;align=center;verticalAlign=middle;resizable=0;points=[];" vertex="1" connectable="0" parent="di6f2RVzCRFzlBpOF8W5-100">
          <mxGeometry x="0.0254" y="3" relative="1" as="geometry">
            <mxPoint as="offset" />
          </mxGeometry>
        </mxCell>
        <mxCell id="di6f2RVzCRFzlBpOF8W5-15" value="использование конвертера" style="ellipse;whiteSpace=wrap;html=1;" vertex="1" parent="1">
          <mxGeometry x="287" y="880" width="120" height="86" as="geometry" />
        </mxCell>
        <mxCell id="di6f2RVzCRFzlBpOF8W5-16" value="установка стандартной валюты для приложения&amp;nbsp;" style="ellipse;whiteSpace=wrap;html=1;" vertex="1" parent="1">
          <mxGeometry x="287" y="1010" width="120" height="86" as="geometry" />
        </mxCell>
        <mxCell id="di6f2RVzCRFzlBpOF8W5-17" value="выбор темы приложения" style="ellipse;whiteSpace=wrap;html=1;" vertex="1" parent="1">
          <mxGeometry x="287" y="1120" width="120" height="86" as="geometry" />
        </mxCell>
        <mxCell id="di6f2RVzCRFzlBpOF8W5-18" value="осущесвление ведения категорий" style="ellipse;whiteSpace=wrap;html=1;" vertex="1" parent="1">
          <mxGeometry x="287" y="1230" width="120" height="86" as="geometry" />
        </mxCell>
        <mxCell id="di6f2RVzCRFzlBpOF8W5-126" style="rounded=0;orthogonalLoop=1;jettySize=auto;html=1;entryX=0;entryY=0.5;entryDx=0;entryDy=0;dashed=1;" edge="1" parent="1" source="di6f2RVzCRFzlBpOF8W5-19" target="di6f2RVzCRFzlBpOF8W5-121">
          <mxGeometry relative="1" as="geometry" />
        </mxCell>
        <mxCell id="di6f2RVzCRFzlBpOF8W5-143" value="include" style="edgeLabel;html=1;align=center;verticalAlign=middle;resizable=0;points=[];" vertex="1" connectable="0" parent="di6f2RVzCRFzlBpOF8W5-126">
          <mxGeometry x="0.4272" y="-2" relative="1" as="geometry">
            <mxPoint as="offset" />
          </mxGeometry>
        </mxCell>
        <mxCell id="di6f2RVzCRFzlBpOF8W5-128" style="rounded=0;orthogonalLoop=1;jettySize=auto;html=1;exitX=1;exitY=0.5;exitDx=0;exitDy=0;entryX=0;entryY=0.5;entryDx=0;entryDy=0;dashed=1;" edge="1" parent="1" source="di6f2RVzCRFzlBpOF8W5-19" target="di6f2RVzCRFzlBpOF8W5-122">
          <mxGeometry relative="1" as="geometry" />
        </mxCell>
        <mxCell id="di6f2RVzCRFzlBpOF8W5-144" value="include" style="edgeLabel;html=1;align=center;verticalAlign=middle;resizable=0;points=[];" vertex="1" connectable="0" parent="di6f2RVzCRFzlBpOF8W5-128">
          <mxGeometry x="0.5919" y="2" relative="1" as="geometry">
            <mxPoint as="offset" />
          </mxGeometry>
        </mxCell>
        <mxCell id="di6f2RVzCRFzlBpOF8W5-19" value="осуществление переводов между счетами" style="ellipse;whiteSpace=wrap;html=1;" vertex="1" parent="1">
          <mxGeometry x="287" y="1350" width="120" height="86" as="geometry" />
        </mxCell>
        <mxCell id="di6f2RVzCRFzlBpOF8W5-20" value="" style="endArrow=none;html=1;rounded=0;entryX=0;entryY=0.5;entryDx=0;entryDy=0;exitX=0.5;exitY=0.5;exitDx=0;exitDy=0;exitPerimeter=0;" edge="1" parent="1" source="di6f2RVzCRFzlBpOF8W5-2" target="di6f2RVzCRFzlBpOF8W5-4">
          <mxGeometry width="50" height="50" relative="1" as="geometry">
            <mxPoint x="707" y="540" as="sourcePoint" />
            <mxPoint x="757" y="490" as="targetPoint" />
          </mxGeometry>
        </mxCell>
        <mxCell id="di6f2RVzCRFzlBpOF8W5-21" value="" style="endArrow=none;html=1;rounded=0;entryX=0;entryY=0.5;entryDx=0;entryDy=0;exitX=0.5;exitY=0.5;exitDx=0;exitDy=0;exitPerimeter=0;" edge="1" parent="1" source="di6f2RVzCRFzlBpOF8W5-2" target="di6f2RVzCRFzlBpOF8W5-5">
          <mxGeometry width="50" height="50" relative="1" as="geometry">
            <mxPoint x="162" y="830" as="sourcePoint" />
            <mxPoint x="297" y="130" as="targetPoint" />
          </mxGeometry>
        </mxCell>
        <mxCell id="di6f2RVzCRFzlBpOF8W5-22" value="" style="endArrow=none;html=1;rounded=0;entryX=0;entryY=0.5;entryDx=0;entryDy=0;exitX=0.5;exitY=0.5;exitDx=0;exitDy=0;exitPerimeter=0;" edge="1" parent="1" source="di6f2RVzCRFzlBpOF8W5-2" target="di6f2RVzCRFzlBpOF8W5-6">
          <mxGeometry width="50" height="50" relative="1" as="geometry">
            <mxPoint x="162" y="830" as="sourcePoint" />
            <mxPoint x="297" y="240" as="targetPoint" />
          </mxGeometry>
        </mxCell>
        <mxCell id="di6f2RVzCRFzlBpOF8W5-24" value="" style="endArrow=none;html=1;rounded=0;entryX=0;entryY=0.5;entryDx=0;entryDy=0;exitX=0.5;exitY=0.5;exitDx=0;exitDy=0;exitPerimeter=0;" edge="1" parent="1" source="di6f2RVzCRFzlBpOF8W5-2" target="di6f2RVzCRFzlBpOF8W5-8">
          <mxGeometry width="50" height="50" relative="1" as="geometry">
            <mxPoint x="162" y="830" as="sourcePoint" />
            <mxPoint x="297" y="353" as="targetPoint" />
          </mxGeometry>
        </mxCell>
        <mxCell id="di6f2RVzCRFzlBpOF8W5-25" value="" style="endArrow=none;html=1;rounded=0;entryX=0;entryY=0.5;entryDx=0;entryDy=0;exitX=0.5;exitY=0.5;exitDx=0;exitDy=0;exitPerimeter=0;" edge="1" parent="1" source="di6f2RVzCRFzlBpOF8W5-2" target="di6f2RVzCRFzlBpOF8W5-9">
          <mxGeometry width="50" height="50" relative="1" as="geometry">
            <mxPoint x="162" y="830" as="sourcePoint" />
            <mxPoint x="297" y="467" as="targetPoint" />
          </mxGeometry>
        </mxCell>
        <mxCell id="di6f2RVzCRFzlBpOF8W5-26" value="" style="endArrow=none;html=1;rounded=0;entryX=0;entryY=0.5;entryDx=0;entryDy=0;exitX=0.5;exitY=0.5;exitDx=0;exitDy=0;exitPerimeter=0;" edge="1" parent="1" source="di6f2RVzCRFzlBpOF8W5-2" target="di6f2RVzCRFzlBpOF8W5-10">
          <mxGeometry width="50" height="50" relative="1" as="geometry">
            <mxPoint x="162" y="830" as="sourcePoint" />
            <mxPoint x="297" y="583" as="targetPoint" />
          </mxGeometry>
        </mxCell>
        <mxCell id="di6f2RVzCRFzlBpOF8W5-28" value="" style="endArrow=none;html=1;rounded=0;entryX=0;entryY=0.5;entryDx=0;entryDy=0;exitX=0.5;exitY=0.5;exitDx=0;exitDy=0;exitPerimeter=0;" edge="1" parent="1" source="di6f2RVzCRFzlBpOF8W5-2" target="di6f2RVzCRFzlBpOF8W5-14">
          <mxGeometry width="50" height="50" relative="1" as="geometry">
            <mxPoint x="162" y="830" as="sourcePoint" />
            <mxPoint x="297" y="703" as="targetPoint" />
          </mxGeometry>
        </mxCell>
        <mxCell id="di6f2RVzCRFzlBpOF8W5-29" value="" style="endArrow=none;html=1;rounded=0;entryX=0;entryY=0.5;entryDx=0;entryDy=0;exitX=0.5;exitY=0.5;exitDx=0;exitDy=0;exitPerimeter=0;" edge="1" parent="1" source="di6f2RVzCRFzlBpOF8W5-2" target="di6f2RVzCRFzlBpOF8W5-15">
          <mxGeometry width="50" height="50" relative="1" as="geometry">
            <mxPoint x="162" y="830" as="sourcePoint" />
            <mxPoint x="297" y="817" as="targetPoint" />
          </mxGeometry>
        </mxCell>
        <mxCell id="di6f2RVzCRFzlBpOF8W5-30" value="" style="endArrow=none;html=1;rounded=0;entryX=0;entryY=0.5;entryDx=0;entryDy=0;exitX=0.5;exitY=0.5;exitDx=0;exitDy=0;exitPerimeter=0;" edge="1" parent="1" source="di6f2RVzCRFzlBpOF8W5-2" target="di6f2RVzCRFzlBpOF8W5-16">
          <mxGeometry width="50" height="50" relative="1" as="geometry">
            <mxPoint x="162" y="830" as="sourcePoint" />
            <mxPoint x="297" y="933" as="targetPoint" />
          </mxGeometry>
        </mxCell>
        <mxCell id="di6f2RVzCRFzlBpOF8W5-31" value="" style="endArrow=none;html=1;rounded=0;entryX=0;entryY=0.5;entryDx=0;entryDy=0;exitX=0.5;exitY=0.5;exitDx=0;exitDy=0;exitPerimeter=0;" edge="1" parent="1" source="di6f2RVzCRFzlBpOF8W5-2" target="di6f2RVzCRFzlBpOF8W5-17">
          <mxGeometry width="50" height="50" relative="1" as="geometry">
            <mxPoint x="107" y="940" as="sourcePoint" />
            <mxPoint x="297" y="1063" as="targetPoint" />
          </mxGeometry>
        </mxCell>
        <mxCell id="di6f2RVzCRFzlBpOF8W5-32" value="" style="endArrow=none;html=1;rounded=0;entryX=0;entryY=0.5;entryDx=0;entryDy=0;exitX=0.5;exitY=0.5;exitDx=0;exitDy=0;exitPerimeter=0;" edge="1" parent="1" source="di6f2RVzCRFzlBpOF8W5-2" target="di6f2RVzCRFzlBpOF8W5-18">
          <mxGeometry width="50" height="50" relative="1" as="geometry">
            <mxPoint x="107" y="830" as="sourcePoint" />
            <mxPoint x="297" y="1173" as="targetPoint" />
          </mxGeometry>
        </mxCell>
        <mxCell id="di6f2RVzCRFzlBpOF8W5-34" value="" style="endArrow=none;html=1;rounded=0;entryX=0;entryY=0.5;entryDx=0;entryDy=0;exitX=0.5;exitY=0.5;exitDx=0;exitDy=0;exitPerimeter=0;" edge="1" parent="1" source="di6f2RVzCRFzlBpOF8W5-2" target="di6f2RVzCRFzlBpOF8W5-19">
          <mxGeometry width="50" height="50" relative="1" as="geometry">
            <mxPoint x="117" y="840" as="sourcePoint" />
            <mxPoint x="297" y="1283" as="targetPoint" />
          </mxGeometry>
        </mxCell>
        <mxCell id="di6f2RVzCRFzlBpOF8W5-35" value="ввод email" style="ellipse;whiteSpace=wrap;html=1;" vertex="1" parent="1">
          <mxGeometry x="470" y="60" width="90" height="50" as="geometry" />
        </mxCell>
        <mxCell id="di6f2RVzCRFzlBpOF8W5-36" value="ввод никнейма" style="ellipse;whiteSpace=wrap;html=1;" vertex="1" parent="1">
          <mxGeometry x="550" y="95" width="90" height="50" as="geometry" />
        </mxCell>
        <mxCell id="di6f2RVzCRFzlBpOF8W5-37" value="ввод пароля" style="ellipse;whiteSpace=wrap;html=1;" vertex="1" parent="1">
          <mxGeometry x="620" y="140" width="90" height="50" as="geometry" />
        </mxCell>
        <mxCell id="di6f2RVzCRFzlBpOF8W5-46" value="ввод пароля" style="ellipse;whiteSpace=wrap;html=1;" vertex="1" parent="1">
          <mxGeometry x="470" y="205" width="90" height="50" as="geometry" />
        </mxCell>
        <mxCell id="di6f2RVzCRFzlBpOF8W5-78" style="rounded=0;orthogonalLoop=1;jettySize=auto;html=1;exitX=0;exitY=0.5;exitDx=0;exitDy=0;entryX=1;entryY=0.5;entryDx=0;entryDy=0;dashed=1;" edge="1" parent="1" source="di6f2RVzCRFzlBpOF8W5-50" target="di6f2RVzCRFzlBpOF8W5-6">
          <mxGeometry relative="1" as="geometry" />
        </mxCell>
        <mxCell id="di6f2RVzCRFzlBpOF8W5-146" value="extends" style="edgeLabel;html=1;align=center;verticalAlign=middle;resizable=0;points=[];" vertex="1" connectable="0" parent="di6f2RVzCRFzlBpOF8W5-78">
          <mxGeometry x="-0.1407" y="-2" relative="1" as="geometry">
            <mxPoint x="-3" y="2" as="offset" />
          </mxGeometry>
        </mxCell>
        <mxCell id="di6f2RVzCRFzlBpOF8W5-50" value="выбор периода" style="ellipse;whiteSpace=wrap;html=1;" vertex="1" parent="1">
          <mxGeometry x="470" y="318" width="90" height="50" as="geometry" />
        </mxCell>
        <mxCell id="di6f2RVzCRFzlBpOF8W5-54" value="ввести сумму" style="ellipse;whiteSpace=wrap;html=1;" vertex="1" parent="1">
          <mxGeometry x="470" y="490" width="90" height="50" as="geometry" />
        </mxCell>
        <mxCell id="di6f2RVzCRFzlBpOF8W5-55" value="выбрать счет" style="ellipse;whiteSpace=wrap;html=1;" vertex="1" parent="1">
          <mxGeometry x="580" y="520" width="90" height="50" as="geometry" />
        </mxCell>
        <mxCell id="di6f2RVzCRFzlBpOF8W5-56" value="выбрать категорию" style="ellipse;whiteSpace=wrap;html=1;" vertex="1" parent="1">
          <mxGeometry x="680" y="550" width="90" height="50" as="geometry" />
        </mxCell>
        <mxCell id="di6f2RVzCRFzlBpOF8W5-86" style="rounded=0;orthogonalLoop=1;jettySize=auto;html=1;exitX=0;exitY=1;exitDx=0;exitDy=0;entryX=1;entryY=1;entryDx=0;entryDy=0;dashed=1;" edge="1" parent="1" source="di6f2RVzCRFzlBpOF8W5-58" target="di6f2RVzCRFzlBpOF8W5-9">
          <mxGeometry relative="1" as="geometry" />
        </mxCell>
        <mxCell id="di6f2RVzCRFzlBpOF8W5-147" value="extends" style="edgeLabel;html=1;align=center;verticalAlign=middle;resizable=0;points=[];" vertex="1" connectable="0" parent="di6f2RVzCRFzlBpOF8W5-86">
          <mxGeometry x="0.1257" y="-2" relative="1" as="geometry">
            <mxPoint as="offset" />
          </mxGeometry>
        </mxCell>
        <mxCell id="di6f2RVzCRFzlBpOF8W5-58" value="добавить описание" style="ellipse;whiteSpace=wrap;html=1;" vertex="1" parent="1">
          <mxGeometry x="780" y="570" width="90" height="50" as="geometry" />
        </mxCell>
        <mxCell id="di6f2RVzCRFzlBpOF8W5-65" style="edgeStyle=orthogonalEdgeStyle;rounded=0;orthogonalLoop=1;jettySize=auto;html=1;exitX=0.5;exitY=1;exitDx=0;exitDy=0;" edge="1" parent="1" source="di6f2RVzCRFzlBpOF8W5-55" target="di6f2RVzCRFzlBpOF8W5-55">
          <mxGeometry relative="1" as="geometry" />
        </mxCell>
        <mxCell id="di6f2RVzCRFzlBpOF8W5-66" value="ввести название счета или банка" style="ellipse;whiteSpace=wrap;html=1;" vertex="1" parent="1">
          <mxGeometry x="460" y="620" width="90" height="50" as="geometry" />
        </mxCell>
        <mxCell id="di6f2RVzCRFzlBpOF8W5-67" value="выбрать&lt;br&gt;тип счета" style="ellipse;whiteSpace=wrap;html=1;" vertex="1" parent="1">
          <mxGeometry x="560" y="650" width="90" height="50" as="geometry" />
        </mxCell>
        <mxCell id="di6f2RVzCRFzlBpOF8W5-91" style="rounded=0;orthogonalLoop=1;jettySize=auto;html=1;exitX=0;exitY=1;exitDx=0;exitDy=0;entryX=1;entryY=0.5;entryDx=0;entryDy=0;dashed=1;" edge="1" parent="1" source="di6f2RVzCRFzlBpOF8W5-68" target="di6f2RVzCRFzlBpOF8W5-169">
          <mxGeometry relative="1" as="geometry" />
        </mxCell>
        <mxCell id="di6f2RVzCRFzlBpOF8W5-148" value="extends" style="edgeLabel;html=1;align=center;verticalAlign=middle;resizable=0;points=[];" vertex="1" connectable="0" parent="di6f2RVzCRFzlBpOF8W5-91">
          <mxGeometry x="0.1185" y="-3" relative="1" as="geometry">
            <mxPoint as="offset" />
          </mxGeometry>
        </mxCell>
        <mxCell id="di6f2RVzCRFzlBpOF8W5-68" value="выбрать значок" style="ellipse;whiteSpace=wrap;html=1;" vertex="1" parent="1">
          <mxGeometry x="980" y="930" width="90" height="50" as="geometry" />
        </mxCell>
        <mxCell id="di6f2RVzCRFzlBpOF8W5-92" style="rounded=0;orthogonalLoop=1;jettySize=auto;html=1;entryX=1;entryY=0.5;entryDx=0;entryDy=0;dashed=1;" edge="1" parent="1" source="di6f2RVzCRFzlBpOF8W5-69" target="di6f2RVzCRFzlBpOF8W5-169">
          <mxGeometry relative="1" as="geometry" />
        </mxCell>
        <mxCell id="di6f2RVzCRFzlBpOF8W5-149" value="extends" style="edgeLabel;html=1;align=center;verticalAlign=middle;resizable=0;points=[];" vertex="1" connectable="0" parent="di6f2RVzCRFzlBpOF8W5-92">
          <mxGeometry x="-0.1355" y="1" relative="1" as="geometry">
            <mxPoint as="offset" />
          </mxGeometry>
        </mxCell>
        <mxCell id="di6f2RVzCRFzlBpOF8W5-69" value="выбрать цвет" style="ellipse;whiteSpace=wrap;html=1;" vertex="1" parent="1">
          <mxGeometry x="990" y="1000" width="90" height="50" as="geometry" />
        </mxCell>
        <mxCell id="di6f2RVzCRFzlBpOF8W5-70" value="ввести остаток средств" style="ellipse;whiteSpace=wrap;html=1;" vertex="1" parent="1">
          <mxGeometry x="650" y="670" width="90" height="50" as="geometry" />
        </mxCell>
        <mxCell id="di6f2RVzCRFzlBpOF8W5-95" style="rounded=0;orthogonalLoop=1;jettySize=auto;html=1;exitX=0;exitY=0.5;exitDx=0;exitDy=0;entryX=1;entryY=1;entryDx=0;entryDy=0;dashed=1;" edge="1" parent="1" source="di6f2RVzCRFzlBpOF8W5-71" target="di6f2RVzCRFzlBpOF8W5-10">
          <mxGeometry relative="1" as="geometry" />
        </mxCell>
        <mxCell id="di6f2RVzCRFzlBpOF8W5-150" value="extends" style="edgeLabel;html=1;align=center;verticalAlign=middle;resizable=0;points=[];" vertex="1" connectable="0" parent="di6f2RVzCRFzlBpOF8W5-95">
          <mxGeometry x="-0.2299" y="1" relative="1" as="geometry">
            <mxPoint as="offset" />
          </mxGeometry>
        </mxCell>
        <mxCell id="di6f2RVzCRFzlBpOF8W5-71" value="включить/не включать в общий баланс" style="ellipse;whiteSpace=wrap;html=1;" vertex="1" parent="1">
          <mxGeometry x="740" y="735" width="120" height="60" as="geometry" />
        </mxCell>
        <mxCell id="di6f2RVzCRFzlBpOF8W5-99" style="rounded=0;orthogonalLoop=1;jettySize=auto;html=1;entryX=1;entryY=0.5;entryDx=0;entryDy=0;dashed=1;" edge="1" parent="1" source="di6f2RVzCRFzlBpOF8W5-97" target="di6f2RVzCRFzlBpOF8W5-15">
          <mxGeometry relative="1" as="geometry" />
        </mxCell>
        <mxCell id="di6f2RVzCRFzlBpOF8W5-151" value="extends" style="edgeLabel;html=1;align=center;verticalAlign=middle;resizable=0;points=[];" vertex="1" connectable="0" parent="di6f2RVzCRFzlBpOF8W5-99">
          <mxGeometry x="-0.0887" y="-2" relative="1" as="geometry">
            <mxPoint as="offset" />
          </mxGeometry>
        </mxCell>
        <mxCell id="di6f2RVzCRFzlBpOF8W5-97" value="выбрать валюты" style="ellipse;whiteSpace=wrap;html=1;" vertex="1" parent="1">
          <mxGeometry x="470" y="850" width="90" height="50" as="geometry" />
        </mxCell>
        <mxCell id="di6f2RVzCRFzlBpOF8W5-98" value="ввести сумму" style="ellipse;whiteSpace=wrap;html=1;" vertex="1" parent="1">
          <mxGeometry x="495" y="930" width="90" height="50" as="geometry" />
        </mxCell>
        <mxCell id="di6f2RVzCRFzlBpOF8W5-102" style="edgeStyle=orthogonalEdgeStyle;rounded=0;orthogonalLoop=1;jettySize=auto;html=1;entryX=1;entryY=0.5;entryDx=0;entryDy=0;dashed=1;" edge="1" parent="1" source="di6f2RVzCRFzlBpOF8W5-101" target="di6f2RVzCRFzlBpOF8W5-16">
          <mxGeometry relative="1" as="geometry" />
        </mxCell>
        <mxCell id="di6f2RVzCRFzlBpOF8W5-152" value="extends" style="edgeLabel;html=1;align=center;verticalAlign=middle;resizable=0;points=[];" vertex="1" connectable="0" parent="di6f2RVzCRFzlBpOF8W5-102">
          <mxGeometry x="-0.1056" y="1" relative="1" as="geometry">
            <mxPoint as="offset" />
          </mxGeometry>
        </mxCell>
        <mxCell id="di6f2RVzCRFzlBpOF8W5-101" value="выбрать валюты" style="ellipse;whiteSpace=wrap;html=1;" vertex="1" parent="1">
          <mxGeometry x="470" y="1028" width="90" height="50" as="geometry" />
        </mxCell>
        <mxCell id="di6f2RVzCRFzlBpOF8W5-108" style="rounded=0;orthogonalLoop=1;jettySize=auto;html=1;entryX=1;entryY=0.5;entryDx=0;entryDy=0;dashed=1;" edge="1" parent="1" source="di6f2RVzCRFzlBpOF8W5-105" target="di6f2RVzCRFzlBpOF8W5-18">
          <mxGeometry relative="1" as="geometry" />
        </mxCell>
        <mxCell id="di6f2RVzCRFzlBpOF8W5-154" value="extends" style="edgeLabel;html=1;align=center;verticalAlign=middle;resizable=0;points=[];" vertex="1" connectable="0" parent="di6f2RVzCRFzlBpOF8W5-108">
          <mxGeometry x="-0.2251" y="2" relative="1" as="geometry">
            <mxPoint as="offset" />
          </mxGeometry>
        </mxCell>
        <mxCell id="di6f2RVzCRFzlBpOF8W5-116" style="rounded=0;orthogonalLoop=1;jettySize=auto;html=1;entryX=0;entryY=0.5;entryDx=0;entryDy=0;dashed=1;exitX=1;exitY=0.5;exitDx=0;exitDy=0;" edge="1" parent="1" source="di6f2RVzCRFzlBpOF8W5-105" target="di6f2RVzCRFzlBpOF8W5-112">
          <mxGeometry relative="1" as="geometry" />
        </mxCell>
        <mxCell id="di6f2RVzCRFzlBpOF8W5-142" value="include" style="edgeLabel;html=1;align=center;verticalAlign=middle;resizable=0;points=[];" vertex="1" connectable="0" parent="di6f2RVzCRFzlBpOF8W5-116">
          <mxGeometry x="0.0695" y="1" relative="1" as="geometry">
            <mxPoint as="offset" />
          </mxGeometry>
        </mxCell>
        <mxCell id="di6f2RVzCRFzlBpOF8W5-105" value="создать категорию" style="ellipse;whiteSpace=wrap;html=1;" vertex="1" parent="1">
          <mxGeometry x="470" y="1220" width="90" height="50" as="geometry" />
        </mxCell>
        <mxCell id="di6f2RVzCRFzlBpOF8W5-110" style="rounded=0;orthogonalLoop=1;jettySize=auto;html=1;entryX=1;entryY=0.5;entryDx=0;entryDy=0;dashed=1;" edge="1" parent="1" source="di6f2RVzCRFzlBpOF8W5-106" target="di6f2RVzCRFzlBpOF8W5-18">
          <mxGeometry relative="1" as="geometry" />
        </mxCell>
        <mxCell id="di6f2RVzCRFzlBpOF8W5-155" value="extends" style="edgeLabel;html=1;align=center;verticalAlign=middle;resizable=0;points=[];" vertex="1" connectable="0" parent="di6f2RVzCRFzlBpOF8W5-110">
          <mxGeometry x="-0.1714" y="2" relative="1" as="geometry">
            <mxPoint as="offset" />
          </mxGeometry>
        </mxCell>
        <mxCell id="di6f2RVzCRFzlBpOF8W5-106" value="редактировать категорию" style="ellipse;whiteSpace=wrap;html=1;" vertex="1" parent="1">
          <mxGeometry x="540" y="1270" width="90" height="50" as="geometry" />
        </mxCell>
        <mxCell id="di6f2RVzCRFzlBpOF8W5-111" style="rounded=0;orthogonalLoop=1;jettySize=auto;html=1;dashed=1;entryX=1;entryY=0.5;entryDx=0;entryDy=0;" edge="1" parent="1" source="di6f2RVzCRFzlBpOF8W5-107" target="di6f2RVzCRFzlBpOF8W5-18">
          <mxGeometry relative="1" as="geometry">
            <mxPoint x="410" y="1280" as="targetPoint" />
          </mxGeometry>
        </mxCell>
        <mxCell id="di6f2RVzCRFzlBpOF8W5-156" value="extends" style="edgeLabel;html=1;align=center;verticalAlign=middle;resizable=0;points=[];" vertex="1" connectable="0" parent="di6f2RVzCRFzlBpOF8W5-111">
          <mxGeometry x="-0.0321" relative="1" as="geometry">
            <mxPoint as="offset" />
          </mxGeometry>
        </mxCell>
        <mxCell id="di6f2RVzCRFzlBpOF8W5-107" value="удалить категорию" style="ellipse;whiteSpace=wrap;html=1;" vertex="1" parent="1">
          <mxGeometry x="450" y="1300" width="90" height="50" as="geometry" />
        </mxCell>
        <mxCell id="di6f2RVzCRFzlBpOF8W5-112" value="ввести название&amp;nbsp;" style="ellipse;whiteSpace=wrap;html=1;" vertex="1" parent="1">
          <mxGeometry x="650" y="1206" width="90" height="50" as="geometry" />
        </mxCell>
        <mxCell id="di6f2RVzCRFzlBpOF8W5-121" value="выбрать сумму" style="ellipse;whiteSpace=wrap;html=1;" vertex="1" parent="1">
          <mxGeometry x="760" y="1360" width="90" height="50" as="geometry" />
        </mxCell>
        <mxCell id="di6f2RVzCRFzlBpOF8W5-122" value="выбрать счет назначения" style="ellipse;whiteSpace=wrap;html=1;" vertex="1" parent="1">
          <mxGeometry x="660" y="1410" width="90" height="50" as="geometry" />
        </mxCell>
        <mxCell id="di6f2RVzCRFzlBpOF8W5-125" style="rounded=0;orthogonalLoop=1;jettySize=auto;html=1;entryX=1;entryY=0.5;entryDx=0;entryDy=0;dashed=1;" edge="1" parent="1" source="di6f2RVzCRFzlBpOF8W5-123" target="di6f2RVzCRFzlBpOF8W5-19">
          <mxGeometry relative="1" as="geometry" />
        </mxCell>
        <mxCell id="di6f2RVzCRFzlBpOF8W5-158" value="extends" style="edgeLabel;html=1;align=center;verticalAlign=middle;resizable=0;points=[];" vertex="1" connectable="0" parent="di6f2RVzCRFzlBpOF8W5-125">
          <mxGeometry x="-0.2579" y="-1" relative="1" as="geometry">
            <mxPoint as="offset" />
          </mxGeometry>
        </mxCell>
        <mxCell id="di6f2RVzCRFzlBpOF8W5-123" value="добавить&lt;br&gt;описание" style="ellipse;whiteSpace=wrap;html=1;" vertex="1" parent="1">
          <mxGeometry x="570" y="1330" width="90" height="50" as="geometry" />
        </mxCell>
        <mxCell id="di6f2RVzCRFzlBpOF8W5-124" value="выбрать счет-источник" style="ellipse;whiteSpace=wrap;html=1;" vertex="1" parent="1">
          <mxGeometry x="495" y="1420" width="90" height="50" as="geometry" />
        </mxCell>
        <mxCell id="di6f2RVzCRFzlBpOF8W5-129" style="rounded=0;orthogonalLoop=1;jettySize=auto;html=1;entryX=0.056;entryY=0.4;entryDx=0;entryDy=0;entryPerimeter=0;dashed=1;" edge="1" parent="1" source="di6f2RVzCRFzlBpOF8W5-19" target="di6f2RVzCRFzlBpOF8W5-124">
          <mxGeometry relative="1" as="geometry" />
        </mxCell>
        <mxCell id="di6f2RVzCRFzlBpOF8W5-145" value="include" style="edgeLabel;html=1;align=center;verticalAlign=middle;resizable=0;points=[];" vertex="1" connectable="0" parent="di6f2RVzCRFzlBpOF8W5-129">
          <mxGeometry x="0.0838" y="-1" relative="1" as="geometry">
            <mxPoint as="offset" />
          </mxGeometry>
        </mxCell>
        <mxCell id="di6f2RVzCRFzlBpOF8W5-160" value="осуществить анализ" style="ellipse;whiteSpace=wrap;html=1;" vertex="1" parent="1">
          <mxGeometry x="570" y="364" width="90" height="50" as="geometry" />
        </mxCell>
        <mxCell id="di6f2RVzCRFzlBpOF8W5-164" style="rounded=0;orthogonalLoop=1;jettySize=auto;html=1;entryX=1;entryY=0.5;entryDx=0;entryDy=0;dashed=1;" edge="1" parent="1" source="di6f2RVzCRFzlBpOF8W5-161" target="di6f2RVzCRFzlBpOF8W5-8">
          <mxGeometry relative="1" as="geometry" />
        </mxCell>
        <mxCell id="di6f2RVzCRFzlBpOF8W5-165" value="extends" style="edgeLabel;html=1;align=center;verticalAlign=middle;resizable=0;points=[];" vertex="1" connectable="0" parent="di6f2RVzCRFzlBpOF8W5-164">
          <mxGeometry x="-0.1225" y="-1" relative="1" as="geometry">
            <mxPoint as="offset" />
          </mxGeometry>
        </mxCell>
        <mxCell id="di6f2RVzCRFzlBpOF8W5-161" value="выбрать критерии" style="ellipse;whiteSpace=wrap;html=1;" vertex="1" parent="1">
          <mxGeometry x="570" y="432" width="90" height="50" as="geometry" />
        </mxCell>
        <mxCell id="di6f2RVzCRFzlBpOF8W5-170" style="rounded=0;orthogonalLoop=1;jettySize=auto;html=1;entryX=1;entryY=0;entryDx=0;entryDy=0;dashed=1;" edge="1" parent="1" source="di6f2RVzCRFzlBpOF8W5-169" target="di6f2RVzCRFzlBpOF8W5-105">
          <mxGeometry relative="1" as="geometry">
            <mxPoint x="630" y="1251.88232421875" as="targetPoint" />
          </mxGeometry>
        </mxCell>
        <mxCell id="di6f2RVzCRFzlBpOF8W5-177" value="extends" style="edgeLabel;html=1;align=center;verticalAlign=middle;resizable=0;points=[];" vertex="1" connectable="0" parent="di6f2RVzCRFzlBpOF8W5-170">
          <mxGeometry x="-0.2615" y="3" relative="1" as="geometry">
            <mxPoint as="offset" />
          </mxGeometry>
        </mxCell>
        <mxCell id="di6f2RVzCRFzlBpOF8W5-173" style="rounded=0;orthogonalLoop=1;jettySize=auto;html=1;exitX=0;exitY=0;exitDx=0;exitDy=0;entryX=1;entryY=1;entryDx=0;entryDy=0;dashed=1;" edge="1" parent="1" source="di6f2RVzCRFzlBpOF8W5-169" target="di6f2RVzCRFzlBpOF8W5-10">
          <mxGeometry relative="1" as="geometry" />
        </mxCell>
        <mxCell id="di6f2RVzCRFzlBpOF8W5-174" value="extends" style="edgeLabel;html=1;align=center;verticalAlign=middle;resizable=0;points=[];" vertex="1" connectable="0" parent="di6f2RVzCRFzlBpOF8W5-173">
          <mxGeometry x="-0.3785" relative="1" as="geometry">
            <mxPoint x="1" as="offset" />
          </mxGeometry>
        </mxCell>
        <mxCell id="di6f2RVzCRFzlBpOF8W5-169" value="настроить параметры" style="ellipse;whiteSpace=wrap;html=1;" vertex="1" parent="1">
          <mxGeometry x="830" y="973" width="82.5" height="55" as="geometry" />
        </mxCell>
      </root>
    </mxGraphModel>
  </diagram>
</mxfile>
